<svg xmlns="http://www.w3.org/2000/svg" width="100pt" height="100pt" viewBox="0 0 100 100"><path d="M52.461 61.66 62.66 51.461l11.441 11.438a1.495 1.495 0 0 0 2.117 0l11.68-11.68a1.477 1.477 0 0 0 0-2.117l-12-12a1.477 1.477 0 0 0-2.117 0L62.34 48.54l-9.879-9.88L62.9 28.22a1.477 1.477 0 0 0 0-2.117l-12-12a1.477 1.477 0 0 0-2.117 0l-11.68 11.68a1.477 1.477 0 0 0 0 2.117L47.54 38.34l-8.7 8.661-9.94-9.898a1.477 1.477 0 0 0-2.118 0l-11.68 11.68a1.477 1.477 0 0 0 0 2.117l12 12a1.495 1.495 0 0 0 2.117 0l9.942-9.898 8.379 8.378-10.438 10.402a1.477 1.477 0 0 0 0 2.118l12 12a1.495 1.495 0 0 0 2.117 0l11.68-11.68a1.477 1.477 0 0 0 0-2.118zM20.93 68.57a1.48 1.48 0 0 0-1.059-.441c-.398 0-.78.156-1.062.441L9.57 77.808a1.5 1.5 0 0 0-.442 1.063c0 .398.156.777.442 1.058l9.5 9.5c.277.286.66.446 1.058.442.399 0 .781-.156 1.063-.442l9.238-9.238c.285-.281.441-.664.441-1.062a1.48 1.48 0 0 0-.441-1.059zm60 0a1.48 1.48 0 0 0-1.059-.441c-.398 0-.78.156-1.062.441l-9.238 9.238a1.5 1.5 0 0 0-.442 1.063c0 .398.156.777.442 1.058l9.5 9.5c.277.286.66.446 1.058.442.399 0 .781-.156 1.063-.442l9.238-9.238c.285-.281.441-.664.441-1.062a1.48 1.48 0 0 0-.441-1.059zM19.07 31.43c.277.285.66.445 1.059.441.398 0 .78-.156 1.062-.441l9.238-9.238c.286-.282.442-.664.442-1.063a1.48 1.48 0 0 0-.442-1.058l-9.5-9.5a1.48 1.48 0 0 0-1.058-.442c-.399 0-.781.156-1.063.442L9.57 19.809a1.5 1.5 0 0 0-.441 1.062c0 .399.156.778.441 1.059zm60 0c.277.285.66.445 1.059.441.398 0 .78-.156 1.062-.441l9.238-9.238c.286-.282.442-.664.442-1.063a1.48 1.48 0 0 0-.442-1.058l-9.5-9.5a1.48 1.48 0 0 0-1.058-.442c-.399 0-.781.156-1.063.442l-9.238 9.238a1.5 1.5 0 0 0-.441 1.062c0 .399.156.778.441 1.059z"/></svg>